# xmcd CD database file
#
# Track frame offsets:
#	150
#	17208
#	38476
#	52614
#	65453
#
# Disc length: 1118 seconds
#
# Revision: 1
# Processed by: cddbd v1.5.2PL0 Copyright (c) Steve Scherf et al.
# Submitted via: CDex 1.51
#
DISCID=31045c05
DTITLE=BEAT CRUSADERS - WINTERLONG
DYEAR=2007
DGENRE=Rock
TTITLE0=WINTERLONG
TTITLE1=JAPANESE GIRL (2007/10/28 "EPopMAKING SENCE 2007"LIVE AT NIIGATA-LOTS)
TTITLE2=E.M.O (2007/10/28 "EPopMAKING SENCE 2007"LIVE AT NIIGATA-LOTS)
TTITLE3=FEEL (2007/10/28 "EPopMAKING SENCE 2007"LIVE AT NIIGATA-LOTS)
TTITLE4=CUM ON FEEL THE NOIZE (2007/10/28 "EPopMAKING SENCE 2007"LIVE AT NIIGATA-LOTS)
EXTD=YEAR: 2007
EXTT0=
EXTT1=
EXTT2=
EXTT3=
EXTT4=
PLAYORDER=
